<mxfile host="Electron" modified="2023-12-28T12:33:33.280Z" agent="Mozilla/5.0 (Windows NT 10.0; Win64; x64) AppleWebKit/537.36 (KHTML, like Gecko) draw.io/22.1.11 Chrome/114.0.5735.289 Electron/25.9.8 Safari/537.36" etag="mbfoE1IQosTeqWIDpIAD" version="22.1.11" type="device">
  <diagram name="第 1 页" id="FiaVcH7rOuUbhvjaCzPk">
    <mxGraphModel dx="1304" dy="767" grid="1" gridSize="10" guides="1" tooltips="1" connect="1" arrows="1" fold="1" page="1" pageScale="1" pageWidth="827" pageHeight="1169" math="0" shadow="0">
      <root>
        <mxCell id="0" />
        <mxCell id="1" parent="0" />
        <mxCell id="yi56V_0kb3vcWZSKhIQ3-1" style="edgeStyle=none;rounded=0;orthogonalLoop=1;jettySize=auto;html=1;exitX=1;exitY=0.25;exitDx=0;exitDy=0;endArrow=open;endFill=0;" edge="1" parent="1" source="yi56V_0kb3vcWZSKhIQ3-2" target="yi56V_0kb3vcWZSKhIQ3-14">
          <mxGeometry relative="1" as="geometry" />
        </mxCell>
        <mxCell id="yi56V_0kb3vcWZSKhIQ3-32" style="rounded=0;orthogonalLoop=1;jettySize=auto;html=1;exitX=1;exitY=0.75;exitDx=0;exitDy=0;endArrow=open;endFill=0;" edge="1" parent="1" source="yi56V_0kb3vcWZSKhIQ3-2" target="yi56V_0kb3vcWZSKhIQ3-10">
          <mxGeometry relative="1" as="geometry">
            <mxPoint x="220" y="399.9999999999999" as="targetPoint" />
          </mxGeometry>
        </mxCell>
        <mxCell id="yi56V_0kb3vcWZSKhIQ3-2" value="SoldierKilledSubject" style="swimlane;fontStyle=1;align=center;verticalAlign=top;childLayout=stackLayout;horizontal=1;startSize=26;horizontalStack=0;resizeParent=1;resizeParentMax=0;resizeLast=0;collapsible=1;marginBottom=0;whiteSpace=wrap;html=1;" vertex="1" parent="1">
          <mxGeometry x="40" y="340" width="160" height="34" as="geometry" />
        </mxCell>
        <mxCell id="yi56V_0kb3vcWZSKhIQ3-3" value="" style="line;strokeWidth=1;fillColor=none;align=left;verticalAlign=middle;spacingTop=-1;spacingLeft=3;spacingRight=3;rotatable=0;labelPosition=right;points=[];portConstraint=eastwest;strokeColor=inherit;" vertex="1" parent="yi56V_0kb3vcWZSKhIQ3-2">
          <mxGeometry y="26" width="160" height="8" as="geometry" />
        </mxCell>
        <mxCell id="yi56V_0kb3vcWZSKhIQ3-10" value="SoldierKilledObserverAchievement" style="swimlane;fontStyle=1;align=center;verticalAlign=top;childLayout=stackLayout;horizontal=1;startSize=26;horizontalStack=0;resizeParent=1;resizeParentMax=0;resizeLast=0;collapsible=1;marginBottom=0;whiteSpace=wrap;html=1;" vertex="1" parent="1">
          <mxGeometry x="240" y="403" width="260" height="34" as="geometry" />
        </mxCell>
        <mxCell id="yi56V_0kb3vcWZSKhIQ3-11" value="" style="line;strokeWidth=1;fillColor=none;align=left;verticalAlign=middle;spacingTop=-1;spacingLeft=3;spacingRight=3;rotatable=0;labelPosition=right;points=[];portConstraint=eastwest;strokeColor=inherit;" vertex="1" parent="yi56V_0kb3vcWZSKhIQ3-10">
          <mxGeometry y="26" width="260" height="8" as="geometry" />
        </mxCell>
        <mxCell id="yi56V_0kb3vcWZSKhIQ3-14" value="SoldierKilledObserverUI" style="swimlane;fontStyle=1;align=center;verticalAlign=top;childLayout=stackLayout;horizontal=1;startSize=26;horizontalStack=0;resizeParent=1;resizeParentMax=0;resizeLast=0;collapsible=1;marginBottom=0;whiteSpace=wrap;html=1;" vertex="1" parent="1">
          <mxGeometry x="240" y="281" width="260" height="34" as="geometry" />
        </mxCell>
        <mxCell id="yi56V_0kb3vcWZSKhIQ3-15" value="" style="line;strokeWidth=1;fillColor=none;align=left;verticalAlign=middle;spacingTop=-1;spacingLeft=3;spacingRight=3;rotatable=0;labelPosition=right;points=[];portConstraint=eastwest;strokeColor=inherit;" vertex="1" parent="yi56V_0kb3vcWZSKhIQ3-14">
          <mxGeometry y="26" width="260" height="8" as="geometry" />
        </mxCell>
        <mxCell id="yi56V_0kb3vcWZSKhIQ3-18" value="SoldierInfoUI" style="swimlane;fontStyle=1;align=center;verticalAlign=top;childLayout=stackLayout;horizontal=1;startSize=26;horizontalStack=0;resizeParent=1;resizeParentMax=0;resizeLast=0;collapsible=1;marginBottom=0;whiteSpace=wrap;html=1;" vertex="1" parent="1">
          <mxGeometry x="660" y="281" width="160" height="34" as="geometry" />
        </mxCell>
        <mxCell id="yi56V_0kb3vcWZSKhIQ3-19" value="" style="line;strokeWidth=1;fillColor=none;align=left;verticalAlign=middle;spacingTop=-1;spacingLeft=3;spacingRight=3;rotatable=0;labelPosition=right;points=[];portConstraint=eastwest;strokeColor=inherit;" vertex="1" parent="yi56V_0kb3vcWZSKhIQ3-18">
          <mxGeometry y="26" width="160" height="8" as="geometry" />
        </mxCell>
        <mxCell id="yi56V_0kb3vcWZSKhIQ3-22" value="AchievementSystem" style="swimlane;fontStyle=1;align=center;verticalAlign=top;childLayout=stackLayout;horizontal=1;startSize=26;horizontalStack=0;resizeParent=1;resizeParentMax=0;resizeLast=0;collapsible=1;marginBottom=0;whiteSpace=wrap;html=1;" vertex="1" parent="1">
          <mxGeometry x="660" y="404" width="160" height="34" as="geometry" />
        </mxCell>
        <mxCell id="yi56V_0kb3vcWZSKhIQ3-23" value="" style="line;strokeWidth=1;fillColor=none;align=left;verticalAlign=middle;spacingTop=-1;spacingLeft=3;spacingRight=3;rotatable=0;labelPosition=right;points=[];portConstraint=eastwest;strokeColor=inherit;" vertex="1" parent="yi56V_0kb3vcWZSKhIQ3-22">
          <mxGeometry y="26" width="160" height="8" as="geometry" />
        </mxCell>
        <mxCell id="yi56V_0kb3vcWZSKhIQ3-26" style="edgeStyle=none;rounded=0;orthogonalLoop=1;jettySize=auto;html=1;endArrow=open;endFill=0;" edge="1" parent="1" source="yi56V_0kb3vcWZSKhIQ3-14" target="yi56V_0kb3vcWZSKhIQ3-18">
          <mxGeometry relative="1" as="geometry">
            <mxPoint x="460.0012698412699" y="346" as="sourcePoint" />
          </mxGeometry>
        </mxCell>
        <mxCell id="yi56V_0kb3vcWZSKhIQ3-27" value="+RefreshSoldier" style="edgeLabel;html=1;align=center;verticalAlign=middle;resizable=0;points=[];" vertex="1" connectable="0" parent="yi56V_0kb3vcWZSKhIQ3-26">
          <mxGeometry x="0.0333" y="-1" relative="1" as="geometry">
            <mxPoint as="offset" />
          </mxGeometry>
        </mxCell>
        <mxCell id="yi56V_0kb3vcWZSKhIQ3-30" style="edgeStyle=none;rounded=0;orthogonalLoop=1;jettySize=auto;html=1;exitX=1;exitY=0.5;exitDx=0;exitDy=0;endArrow=open;endFill=0;" edge="1" parent="1" source="yi56V_0kb3vcWZSKhIQ3-10" target="yi56V_0kb3vcWZSKhIQ3-22">
          <mxGeometry relative="1" as="geometry">
            <mxPoint x="500" y="487" as="sourcePoint" />
          </mxGeometry>
        </mxCell>
        <mxCell id="yi56V_0kb3vcWZSKhIQ3-31" value="+AddSoldierKilledCount" style="edgeLabel;html=1;align=center;verticalAlign=middle;resizable=0;points=[];" vertex="1" connectable="0" parent="yi56V_0kb3vcWZSKhIQ3-30">
          <mxGeometry x="-0.125" y="1" relative="1" as="geometry">
            <mxPoint x="10" y="1" as="offset" />
          </mxGeometry>
        </mxCell>
      </root>
    </mxGraphModel>
  </diagram>
</mxfile>
